<mxfile host="app.diagrams.net" agent="Mozilla/5.0 (Windows NT 10.0; Win64; x64) AppleWebKit/537.36 (KHTML, like Gecko) Chrome/134.0.0.0 Safari/537.36" version="26.1.3">
  <diagram id="C5RBs43oDa-KdzZeNtuy" name="Page-1">
    <mxGraphModel dx="1687" dy="908" grid="1" gridSize="10" guides="1" tooltips="1" connect="1" arrows="1" fold="1" page="1" pageScale="1" pageWidth="827" pageHeight="1169" math="0" shadow="0">
      <root>
        <mxCell id="WIyWlLk6GJQsqaUBKTNV-0" />
        <mxCell id="WIyWlLk6GJQsqaUBKTNV-1" parent="WIyWlLk6GJQsqaUBKTNV-0" />
        <mxCell id="lv9YnxyCzNiJ2VLWQXhp-31" value="Offline Mode Functionality - Activity Diagram" style="shape=umlFrame;whiteSpace=wrap;html=1;pointerEvents=0;recursiveResize=0;container=1;collapsible=0;width=240;height=30;" parent="WIyWlLk6GJQsqaUBKTNV-1" vertex="1">
          <mxGeometry x="220" width="1210" height="1220" as="geometry" />
        </mxCell>
        <mxCell id="lv9YnxyCzNiJ2VLWQXhp-44" value="Offline Mode" style="swimlane;fontStyle=1;align=center;verticalAlign=top;childLayout=stackLayout;horizontal=1;startSize=26;horizontalStack=0;resizeParent=1;resizeParentMax=0;resizeLast=0;collapsible=1;marginBottom=0;" parent="lv9YnxyCzNiJ2VLWQXhp-31" vertex="1">
          <mxGeometry x="650" y="180" width="260" height="500" as="geometry" />
        </mxCell>
        <mxCell id="lv9YnxyCzNiJ2VLWQXhp-50" value="Check Feature Availability" style="rounded=1;whiteSpace=wrap;html=1;" parent="lv9YnxyCzNiJ2VLWQXhp-31" vertex="1">
          <mxGeometry x="650" y="624" width="260" height="40" as="geometry" />
        </mxCell>
        <mxCell id="lv9YnxyCzNiJ2VLWQXhp-55" value="Request Feature" style="endArrow=classic;html=1;rounded=0;exitX=0.5;exitY=1;exitDx=0;exitDy=0;entryX=0.5;entryY=0;entryDx=0;entryDy=0;" parent="lv9YnxyCzNiJ2VLWQXhp-31" source="lv9YnxyCzNiJ2VLWQXhp-49" target="lv9YnxyCzNiJ2VLWQXhp-50" edge="1">
          <mxGeometry width="50" height="50" relative="1" as="geometry">
            <mxPoint x="780" y="664" as="sourcePoint" />
            <mxPoint x="830" y="614" as="targetPoint" />
          </mxGeometry>
        </mxCell>
        <mxCell id="lv9YnxyCzNiJ2VLWQXhp-49" value="User Navigates App" style="rounded=1;whiteSpace=wrap;html=1;" parent="lv9YnxyCzNiJ2VLWQXhp-31" vertex="1">
          <mxGeometry x="650" y="534" width="260" height="40" as="geometry" />
        </mxCell>
        <mxCell id="lv9YnxyCzNiJ2VLWQXhp-54" value="" style="endArrow=classic;html=1;rounded=0;exitX=0.5;exitY=1;exitDx=0;exitDy=0;entryX=0.5;entryY=0;entryDx=0;entryDy=0;" parent="lv9YnxyCzNiJ2VLWQXhp-31" source="lv9YnxyCzNiJ2VLWQXhp-48" target="lv9YnxyCzNiJ2VLWQXhp-49" edge="1">
          <mxGeometry width="50" height="50" relative="1" as="geometry">
            <mxPoint x="780" y="664" as="sourcePoint" />
            <mxPoint x="830" y="614" as="targetPoint" />
          </mxGeometry>
        </mxCell>
        <mxCell id="lv9YnxyCzNiJ2VLWQXhp-48" value="Load Offline Resources" style="rounded=1;whiteSpace=wrap;html=1;" parent="lv9YnxyCzNiJ2VLWQXhp-31" vertex="1">
          <mxGeometry x="650" y="444" width="260" height="40" as="geometry" />
        </mxCell>
        <mxCell id="lv9YnxyCzNiJ2VLWQXhp-53" value="" style="endArrow=classic;html=1;rounded=0;exitX=0.5;exitY=1;exitDx=0;exitDy=0;entryX=0.5;entryY=0;entryDx=0;entryDy=0;" parent="lv9YnxyCzNiJ2VLWQXhp-31" source="lv9YnxyCzNiJ2VLWQXhp-47" target="lv9YnxyCzNiJ2VLWQXhp-48" edge="1">
          <mxGeometry width="50" height="50" relative="1" as="geometry">
            <mxPoint x="780" y="664" as="sourcePoint" />
            <mxPoint x="830" y="614" as="targetPoint" />
          </mxGeometry>
        </mxCell>
        <mxCell id="lv9YnxyCzNiJ2VLWQXhp-47" value="Display Offline Notification" style="rounded=1;whiteSpace=wrap;html=1;" parent="lv9YnxyCzNiJ2VLWQXhp-31" vertex="1">
          <mxGeometry x="650" y="354" width="260" height="40" as="geometry" />
        </mxCell>
        <mxCell id="lv9YnxyCzNiJ2VLWQXhp-52" value="" style="endArrow=classic;html=1;rounded=0;exitX=0.5;exitY=1;exitDx=0;exitDy=0;entryX=0.5;entryY=0;entryDx=0;entryDy=0;" parent="lv9YnxyCzNiJ2VLWQXhp-31" source="lv9YnxyCzNiJ2VLWQXhp-46" target="lv9YnxyCzNiJ2VLWQXhp-47" edge="1">
          <mxGeometry width="50" height="50" relative="1" as="geometry">
            <mxPoint x="790" y="564" as="sourcePoint" />
            <mxPoint x="840" y="514" as="targetPoint" />
          </mxGeometry>
        </mxCell>
        <mxCell id="lv9YnxyCzNiJ2VLWQXhp-46" value="Check Downloaded Content" style="rounded=1;whiteSpace=wrap;html=1;" parent="lv9YnxyCzNiJ2VLWQXhp-31" vertex="1">
          <mxGeometry x="650" y="270" width="260" height="40" as="geometry" />
        </mxCell>
        <mxCell id="lv9YnxyCzNiJ2VLWQXhp-70" value="Manage Content Storage" style="rounded=1;whiteSpace=wrap;html=1;" parent="lv9YnxyCzNiJ2VLWQXhp-31" vertex="1">
          <mxGeometry x="635" y="1020" width="290" height="40" as="geometry" />
        </mxCell>
        <mxCell id="lv9YnxyCzNiJ2VLWQXhp-69" value="View Downloaded Content" style="rounded=1;whiteSpace=wrap;html=1;" parent="lv9YnxyCzNiJ2VLWQXhp-31" vertex="1">
          <mxGeometry x="635" y="930" width="290" height="40" as="geometry" />
        </mxCell>
        <mxCell id="lv9YnxyCzNiJ2VLWQXhp-72" value="" style="endArrow=classic;html=1;rounded=0;exitX=0.5;exitY=1;exitDx=0;exitDy=0;entryX=0.5;entryY=0;entryDx=0;entryDy=0;" parent="lv9YnxyCzNiJ2VLWQXhp-31" source="lv9YnxyCzNiJ2VLWQXhp-69" target="lv9YnxyCzNiJ2VLWQXhp-70" edge="1">
          <mxGeometry width="50" height="50" relative="1" as="geometry">
            <mxPoint x="1025" y="1150" as="sourcePoint" />
            <mxPoint x="1075" y="1100" as="targetPoint" />
          </mxGeometry>
        </mxCell>
        <mxCell id="lv9YnxyCzNiJ2VLWQXhp-67" value="Content Management" style="swimlane;fontStyle=1;align=center;verticalAlign=top;childLayout=stackLayout;horizontal=1;startSize=26;horizontalStack=0;resizeParent=1;resizeParentMax=0;resizeLast=0;collapsible=1;marginBottom=0;" parent="lv9YnxyCzNiJ2VLWQXhp-31" vertex="1">
          <mxGeometry x="635" y="830" width="290" height="280" as="geometry">
            <mxRectangle x="740" y="630" width="160" height="30" as="alternateBounds" />
          </mxGeometry>
        </mxCell>
        <mxCell id="lv9YnxyCzNiJ2VLWQXhp-75" value="Manage Content" style="endArrow=classic;html=1;rounded=0;exitX=0.5;exitY=1;exitDx=0;exitDy=0;entryX=0.5;entryY=0;entryDx=0;entryDy=0;" parent="lv9YnxyCzNiJ2VLWQXhp-31" source="lv9YnxyCzNiJ2VLWQXhp-44" target="lv9YnxyCzNiJ2VLWQXhp-67" edge="1">
          <mxGeometry width="50" height="50" relative="1" as="geometry">
            <mxPoint x="410" y="280" as="sourcePoint" />
            <mxPoint x="460" y="230" as="targetPoint" />
          </mxGeometry>
        </mxCell>
        <mxCell id="lv9YnxyCzNiJ2VLWQXhp-71" value="" style="endArrow=classic;html=1;rounded=0;entryX=0.5;entryY=0;entryDx=0;entryDy=0;" parent="lv9YnxyCzNiJ2VLWQXhp-31" target="lv9YnxyCzNiJ2VLWQXhp-69" edge="1">
          <mxGeometry width="50" height="50" relative="1" as="geometry">
            <mxPoint x="780" y="860" as="sourcePoint" />
            <mxPoint x="1075" y="1100" as="targetPoint" />
          </mxGeometry>
        </mxCell>
        <mxCell id="lv9YnxyCzNiJ2VLWQXhp-76" value="Return" style="endArrow=classic;html=1;rounded=0;exitX=0.5;exitY=1;exitDx=0;exitDy=0;entryX=0.5;entryY=0;entryDx=0;entryDy=0;" parent="lv9YnxyCzNiJ2VLWQXhp-31" source="lv9YnxyCzNiJ2VLWQXhp-67" target="lv9YnxyCzNiJ2VLWQXhp-95" edge="1">
          <mxGeometry x="-0.1903" y="22" width="50" height="50" relative="1" as="geometry">
            <mxPoint x="660" y="1200" as="sourcePoint" />
            <mxPoint x="692.5" y="1140" as="targetPoint" />
            <mxPoint as="offset" />
          </mxGeometry>
        </mxCell>
        <mxCell id="lv9YnxyCzNiJ2VLWQXhp-57" value="Synchronization" style="swimlane;fontStyle=1;align=center;verticalAlign=top;childLayout=stackLayout;horizontal=1;startSize=26;horizontalStack=0;resizeParent=1;resizeParentMax=0;resizeLast=0;collapsible=1;marginBottom=0;" parent="lv9YnxyCzNiJ2VLWQXhp-31" vertex="1">
          <mxGeometry x="80" y="760" width="240" height="290" as="geometry">
            <mxRectangle x="120" y="760" width="130" height="30" as="alternateBounds" />
          </mxGeometry>
        </mxCell>
        <mxCell id="lv9YnxyCzNiJ2VLWQXhp-77" value="" style="endArrow=classic;html=1;rounded=0;exitX=0;exitY=0.75;exitDx=0;exitDy=0;entryX=1;entryY=0.25;entryDx=0;entryDy=0;" parent="lv9YnxyCzNiJ2VLWQXhp-31" source="lv9YnxyCzNiJ2VLWQXhp-44" target="lv9YnxyCzNiJ2VLWQXhp-57" edge="1">
          <mxGeometry x="0.0478" y="-66" width="50" height="50" relative="1" as="geometry">
            <mxPoint x="410" y="280" as="sourcePoint" />
            <mxPoint x="460" y="230" as="targetPoint" />
            <mxPoint as="offset" />
          </mxGeometry>
        </mxCell>
        <mxCell id="lv9YnxyCzNiJ2VLWQXhp-92" style="edgeStyle=orthogonalEdgeStyle;rounded=0;orthogonalLoop=1;jettySize=auto;html=1;entryX=0;entryY=0.5;entryDx=0;entryDy=0;" parent="lv9YnxyCzNiJ2VLWQXhp-31" edge="1">
          <mxGeometry relative="1" as="geometry">
            <Array as="points">
              <mxPoint x="380" y="434" />
              <mxPoint x="380" y="850" />
              <mxPoint x="635" y="850" />
            </Array>
            <mxPoint x="240" y="434" as="sourcePoint" />
            <mxPoint x="635" y="1050" as="targetPoint" />
          </mxGeometry>
        </mxCell>
        <mxCell id="lv9YnxyCzNiJ2VLWQXhp-40" value="Download Offline Content" style="rounded=1;whiteSpace=wrap;html=1;" parent="lv9YnxyCzNiJ2VLWQXhp-31" vertex="1">
          <mxGeometry x="20" y="404" width="220" height="40" as="geometry" />
        </mxCell>
        <mxCell id="lv9YnxyCzNiJ2VLWQXhp-39" value="Display Download Option" style="rounded=1;whiteSpace=wrap;html=1;" parent="lv9YnxyCzNiJ2VLWQXhp-31" vertex="1">
          <mxGeometry x="20" y="320" width="220" height="40" as="geometry" />
        </mxCell>
        <mxCell id="lv9YnxyCzNiJ2VLWQXhp-43" value="User Selects" style="endArrow=classic;html=1;rounded=0;exitX=0.5;exitY=1;exitDx=0;exitDy=0;entryX=0.5;entryY=0;entryDx=0;entryDy=0;" parent="lv9YnxyCzNiJ2VLWQXhp-31" source="lv9YnxyCzNiJ2VLWQXhp-39" target="lv9YnxyCzNiJ2VLWQXhp-40" edge="1">
          <mxGeometry width="50" height="50" relative="1" as="geometry">
            <mxPoint x="380" y="490" as="sourcePoint" />
            <mxPoint x="430" y="440" as="targetPoint" />
          </mxGeometry>
        </mxCell>
        <mxCell id="lv9YnxyCzNiJ2VLWQXhp-38" value="Online Active" style="rounded=1;whiteSpace=wrap;html=1;" parent="lv9YnxyCzNiJ2VLWQXhp-31" vertex="1">
          <mxGeometry x="20" y="253" width="220" height="40" as="geometry" />
        </mxCell>
        <mxCell id="lv9YnxyCzNiJ2VLWQXhp-42" value="" style="endArrow=classic;html=1;rounded=0;exitX=0.5;exitY=1;exitDx=0;exitDy=0;entryX=0.5;entryY=0;entryDx=0;entryDy=0;" parent="lv9YnxyCzNiJ2VLWQXhp-31" source="lv9YnxyCzNiJ2VLWQXhp-38" target="lv9YnxyCzNiJ2VLWQXhp-39" edge="1">
          <mxGeometry width="50" height="50" relative="1" as="geometry">
            <mxPoint x="380" y="490" as="sourcePoint" />
            <mxPoint x="430" y="440" as="targetPoint" />
          </mxGeometry>
        </mxCell>
        <mxCell id="lv9YnxyCzNiJ2VLWQXhp-36" value="Online Mode" style="swimlane;fontStyle=1;align=center;verticalAlign=top;childLayout=stackLayout;horizontal=1;startSize=26;horizontalStack=0;resizeParent=1;resizeParentMax=0;resizeLast=0;collapsible=1;marginBottom=0;" parent="lv9YnxyCzNiJ2VLWQXhp-31" vertex="1">
          <mxGeometry x="20" y="181" width="220" height="303" as="geometry">
            <mxRectangle x="20" y="181" width="110" height="30" as="alternateBounds" />
          </mxGeometry>
        </mxCell>
        <mxCell id="lv9YnxyCzNiJ2VLWQXhp-78" value="Synchronization&#xa;Complete" style="endArrow=classic;html=1;rounded=0;exitX=0.5;exitY=0;exitDx=0;exitDy=0;entryX=0.5;entryY=1;entryDx=0;entryDy=0;" parent="lv9YnxyCzNiJ2VLWQXhp-31" source="lv9YnxyCzNiJ2VLWQXhp-57" target="lv9YnxyCzNiJ2VLWQXhp-36" edge="1">
          <mxGeometry width="50" height="50" relative="1" as="geometry">
            <mxPoint x="410" y="280" as="sourcePoint" />
            <mxPoint x="460" y="230" as="targetPoint" />
          </mxGeometry>
        </mxCell>
        <mxCell id="lv9YnxyCzNiJ2VLWQXhp-34" value="Internet&#xa;Connection?" style="rhombus;whiteSpace=wrap;html=1;" parent="lv9YnxyCzNiJ2VLWQXhp-31" vertex="1">
          <mxGeometry x="390" y="150" width="100" height="80" as="geometry" />
        </mxCell>
        <mxCell id="lv9YnxyCzNiJ2VLWQXhp-73" value="Connected" style="endArrow=classic;html=1;rounded=0;exitX=0;exitY=0.5;exitDx=0;exitDy=0;entryX=0.991;entryY=0.045;entryDx=0;entryDy=0;entryPerimeter=0;" parent="lv9YnxyCzNiJ2VLWQXhp-31" source="lv9YnxyCzNiJ2VLWQXhp-34" target="lv9YnxyCzNiJ2VLWQXhp-36" edge="1">
          <mxGeometry width="50" height="50" relative="1" as="geometry">
            <mxPoint x="410" y="280" as="sourcePoint" />
            <mxPoint x="460" y="230" as="targetPoint" />
          </mxGeometry>
        </mxCell>
        <mxCell id="lv9YnxyCzNiJ2VLWQXhp-74" value="Disconnected" style="endArrow=classic;html=1;rounded=0;exitX=1;exitY=0.5;exitDx=0;exitDy=0;entryX=0.008;entryY=0.034;entryDx=0;entryDy=0;entryPerimeter=0;" parent="lv9YnxyCzNiJ2VLWQXhp-31" source="lv9YnxyCzNiJ2VLWQXhp-34" target="lv9YnxyCzNiJ2VLWQXhp-44" edge="1">
          <mxGeometry width="50" height="50" relative="1" as="geometry">
            <mxPoint x="410" y="280" as="sourcePoint" />
            <mxPoint x="460" y="230" as="targetPoint" />
          </mxGeometry>
        </mxCell>
        <mxCell id="lv9YnxyCzNiJ2VLWQXhp-33" value="" style="ellipse;fillColor=#000000;strokeColor=none;" parent="lv9YnxyCzNiJ2VLWQXhp-31" vertex="1">
          <mxGeometry x="430" y="40" width="20" height="20" as="geometry" />
        </mxCell>
        <mxCell id="lv9YnxyCzNiJ2VLWQXhp-35" value="" style="endArrow=classic;html=1;rounded=0;exitX=0.5;exitY=1;exitDx=0;exitDy=0;entryX=0.5;entryY=0;entryDx=0;entryDy=0;" parent="lv9YnxyCzNiJ2VLWQXhp-31" source="lv9YnxyCzNiJ2VLWQXhp-33" target="lv9YnxyCzNiJ2VLWQXhp-34" edge="1">
          <mxGeometry width="50" height="50" relative="1" as="geometry">
            <mxPoint x="410" y="280" as="sourcePoint" />
            <mxPoint x="460" y="230" as="targetPoint" />
          </mxGeometry>
        </mxCell>
        <mxCell id="lv9YnxyCzNiJ2VLWQXhp-62" value="Return to Online Mode" style="rounded=1;whiteSpace=wrap;html=1;" parent="lv9YnxyCzNiJ2VLWQXhp-31" vertex="1">
          <mxGeometry x="80" y="990" width="240" height="40" as="geometry" />
        </mxCell>
        <mxCell id="lv9YnxyCzNiJ2VLWQXhp-66" value="" style="endArrow=classic;html=1;rounded=0;exitX=0.5;exitY=1;exitDx=0;exitDy=0;entryX=0.5;entryY=0;entryDx=0;entryDy=0;" parent="lv9YnxyCzNiJ2VLWQXhp-31" source="lv9YnxyCzNiJ2VLWQXhp-61" target="lv9YnxyCzNiJ2VLWQXhp-62" edge="1">
          <mxGeometry width="50" height="50" relative="1" as="geometry">
            <mxPoint x="470" y="1080" as="sourcePoint" />
            <mxPoint x="520" y="1030" as="targetPoint" />
          </mxGeometry>
        </mxCell>
        <mxCell id="lv9YnxyCzNiJ2VLWQXhp-61" value="Synchronize User Data" style="rounded=1;whiteSpace=wrap;html=1;" parent="lv9YnxyCzNiJ2VLWQXhp-31" vertex="1">
          <mxGeometry x="80" y="930" width="240" height="40" as="geometry" />
        </mxCell>
        <mxCell id="lv9YnxyCzNiJ2VLWQXhp-65" value="User Accepts" style="endArrow=classic;html=1;rounded=0;exitX=0.5;exitY=1;exitDx=0;exitDy=0;entryX=0.5;entryY=0;entryDx=0;entryDy=0;" parent="lv9YnxyCzNiJ2VLWQXhp-31" source="lv9YnxyCzNiJ2VLWQXhp-60" target="lv9YnxyCzNiJ2VLWQXhp-61" edge="1">
          <mxGeometry width="50" height="50" relative="1" as="geometry">
            <mxPoint x="470" y="1080" as="sourcePoint" />
            <mxPoint x="520" y="1030" as="targetPoint" />
          </mxGeometry>
        </mxCell>
        <mxCell id="lv9YnxyCzNiJ2VLWQXhp-60" value="Notify User" style="rounded=1;whiteSpace=wrap;html=1;" parent="lv9YnxyCzNiJ2VLWQXhp-31" vertex="1">
          <mxGeometry x="80" y="866" width="240" height="40" as="geometry" />
        </mxCell>
        <mxCell id="lv9YnxyCzNiJ2VLWQXhp-64" value="" style="endArrow=classic;html=1;rounded=0;exitX=0.5;exitY=1;exitDx=0;exitDy=0;entryX=0.5;entryY=0;entryDx=0;entryDy=0;" parent="lv9YnxyCzNiJ2VLWQXhp-31" source="lv9YnxyCzNiJ2VLWQXhp-59" target="lv9YnxyCzNiJ2VLWQXhp-60" edge="1">
          <mxGeometry width="50" height="50" relative="1" as="geometry">
            <mxPoint x="470" y="1080" as="sourcePoint" />
            <mxPoint x="520" y="1030" as="targetPoint" />
          </mxGeometry>
        </mxCell>
        <mxCell id="lv9YnxyCzNiJ2VLWQXhp-59" value="Connection Restored" style="rounded=1;whiteSpace=wrap;html=1;" parent="lv9YnxyCzNiJ2VLWQXhp-31" vertex="1">
          <mxGeometry x="80" y="810" width="240" height="40" as="geometry" />
        </mxCell>
        <mxCell id="lv9YnxyCzNiJ2VLWQXhp-87" value="Connection&lt;br&gt;Restored?" style="rhombus;whiteSpace=wrap;html=1;" parent="lv9YnxyCzNiJ2VLWQXhp-31" vertex="1">
          <mxGeometry x="460" y="630" width="100" height="80" as="geometry" />
        </mxCell>
        <mxCell id="lv9YnxyCzNiJ2VLWQXhp-89" style="edgeStyle=orthogonalEdgeStyle;rounded=0;orthogonalLoop=1;jettySize=auto;html=1;" parent="lv9YnxyCzNiJ2VLWQXhp-31" source="lv9YnxyCzNiJ2VLWQXhp-87" target="lv9YnxyCzNiJ2VLWQXhp-47" edge="1">
          <mxGeometry relative="1" as="geometry">
            <mxPoint x="650" y="240" as="targetPoint" />
            <Array as="points">
              <mxPoint x="510" y="370" />
            </Array>
          </mxGeometry>
        </mxCell>
        <mxCell id="lv9YnxyCzNiJ2VLWQXhp-90" value="No" style="text;html=1;align=center;verticalAlign=middle;resizable=0;points=[];autosize=1;strokeColor=none;fillColor=none;" parent="lv9YnxyCzNiJ2VLWQXhp-31" vertex="1">
          <mxGeometry x="470" y="415" width="40" height="30" as="geometry" />
        </mxCell>
        <mxCell id="lv9YnxyCzNiJ2VLWQXhp-32" value="Check Connectivity" style="swimlane;fontStyle=1;align=center;verticalAlign=top;childLayout=stackLayout;horizontal=1;startSize=26;horizontalStack=0;resizeParent=1;resizeParentMax=0;resizeLast=0;collapsible=1;marginBottom=0;" parent="lv9YnxyCzNiJ2VLWQXhp-31" vertex="1">
          <mxGeometry x="440" y="600" width="140" height="140" as="geometry" />
        </mxCell>
        <mxCell id="lv9YnxyCzNiJ2VLWQXhp-94" style="edgeStyle=orthogonalEdgeStyle;rounded=0;orthogonalLoop=1;jettySize=auto;html=1;entryX=0.75;entryY=1;entryDx=0;entryDy=0;" parent="lv9YnxyCzNiJ2VLWQXhp-31" source="lv9YnxyCzNiJ2VLWQXhp-32" target="lv9YnxyCzNiJ2VLWQXhp-32" edge="1">
          <mxGeometry relative="1" as="geometry">
            <Array as="points">
              <mxPoint x="550" y="580" />
              <mxPoint x="620" y="580" />
              <mxPoint x="620" y="760" />
              <mxPoint x="548" y="760" />
              <mxPoint x="548" y="740" />
            </Array>
          </mxGeometry>
        </mxCell>
        <mxCell id="lv9YnxyCzNiJ2VLWQXhp-95" value="" style="ellipse;html=1;shape=endState;fillColor=strokeColor;" parent="lv9YnxyCzNiJ2VLWQXhp-31" vertex="1">
          <mxGeometry x="765" y="1180" width="30" height="30" as="geometry" />
        </mxCell>
        <mxCell id="lv9YnxyCzNiJ2VLWQXhp-93" value="Store Selected Content" style="text;html=1;align=center;verticalAlign=middle;resizable=0;points=[];autosize=1;strokeColor=none;fillColor=none;" parent="lv9YnxyCzNiJ2VLWQXhp-31" vertex="1">
          <mxGeometry x="430" y="830" width="150" height="30" as="geometry" />
        </mxCell>
        <mxCell id="lv9YnxyCzNiJ2VLWQXhp-88" value="Yes" style="text;html=1;align=center;verticalAlign=middle;resizable=0;points=[];autosize=1;strokeColor=none;fillColor=none;" parent="lv9YnxyCzNiJ2VLWQXhp-31" vertex="1">
          <mxGeometry x="420" y="740" width="40" height="30" as="geometry" />
        </mxCell>
      </root>
    </mxGraphModel>
  </diagram>
</mxfile>
